<svg xmlns="http://www.w3.org/2000/svg" viewBox="0 0 240 44" width="240" height="44">
  <!-- Visit Aravia symbol mark, scaled to 40px height -->
  <g transform="translate(0,2) scale(0.635)">
    <path d="M125.952 61.1393C120.831 58.9605 116.135 55.7246 112.137 51.5916C112.021 51.474 111.924 51.3672 111.856 51.2927C108.352 47.4265 106.009 42.7168 106.009 42.7168L92.6296 13.4545C92.6296 13.4545 92.5133 13.2409 92.4457 13.1341C88.3117 5.95739 83.3453 1.66416 77.6721 0.382597C72.3958 -0.813525 67.6037 0.991338 64.8736 3.08455C60.033 6.80107 57.3223 10.838 53.7499 16.5837C51.8428 19.6487 49.5966 23.6322 47.4184 27.4875C45.792 30.3711 44.1171 33.3507 42.5875 35.9246C41.8518 37.1633 40.8353 37.9751 39.8768 38.0924C39.2282 38.1779 38.6569 37.9323 38.1148 37.3556C36.3721 35.4974 34.4166 33.3294 32.3352 31.0226C29.9246 28.3633 27.2041 25.341 24.4063 22.3614C21.6568 19.4244 18.3265 17.9293 14.7928 18.0574C14.7541 18.0574 14.6767 18.0574 14.6767 18.0574L0 18.0895L3.97897 19.7662C9.10032 21.9235 13.8054 25.1487 17.8231 29.2712C17.9392 29.3885 18.0264 29.4847 18.1038 29.5595C20.8339 32.4751 23.409 35.3264 25.9069 38.0924C28.0173 40.4207 30.0019 42.6313 31.8026 44.543C34.3005 47.2129 37.5242 48.4624 40.8836 48.046C44.5626 47.5974 47.9509 45.1732 50.1872 41.4031C51.7653 38.7334 53.4789 35.7003 55.1343 32.774C57.2448 29.0148 59.4425 25.1274 61.2334 22.2439C64.6123 16.8186 66.5871 13.9671 70.053 11.3079C70.1498 11.2331 72.5411 9.43895 75.8424 10.1865C79.0274 10.9127 82.1739 13.871 84.9331 18.7623C88.6894 25.3943 97.4024 46.2839 98.2349 47.875C98.3802 48.1528 98.535 48.4304 98.6899 48.7188C100.529 52.2858 102.824 55.5537 105.486 58.4265C105.506 58.4373 105.515 58.4585 105.525 58.4693C108.274 61.4169 111.595 62.9227 115.138 62.8159C115.177 62.8159 115.254 62.8051 115.254 62.8051L119.088 62.8159L129.931 62.8374L125.952 61.1393Z" fill="#C4875A"/>
  </g>
  <!-- Divider -->
  <line x1="93" y1="9" x2="93" y2="35" stroke="rgba(196,135,90,0.35)" stroke-width="1"/>
  <!-- Brand name -->
  <text x="104" y="21" font-family="Georgia,'Times New Roman',serif" font-size="10" letter-spacing="3" fill="rgba(196,135,90,0.75)">TRAVEL</text>
  <text x="103" y="38" font-family="Georgia,'Times New Roman',serif" font-size="20" font-weight="700" fill="#C4875A">Aravia</text>
</svg>
